<?xml version="1.0" encoding="utf-8"?>
<!-- Generator: Adobe Illustrator 27.5.0, SVG Export Plug-In . SVG Version: 6.00 Build 0)  -->
<svg version="1.1" xmlns="http://www.w3.org/2000/svg" xmlns:xlink="http://www.w3.org/1999/xlink" x="0px" y="0px"
	 viewBox="0 0 750 500" style="enable-background:new 0 0 750 500;" xml:space="preserve">
<g id="BACKGROUND">
	<rect style="fill:#F7E041;" width="750" height="500"/>
</g>
<g id="OBJECTS">
	<g>
		<defs>
			<rect id="SVGID_1_" width="750" height="500"/>
		</defs>
		<clipPath id="SVGID_00000092421078398279948360000008269321265420029872_">
			<use xlink:href="#SVGID_1_"  style="overflow:visible;"/>
		</clipPath>
		<g style="clip-path:url(#SVGID_00000092421078398279948360000008269321265420029872_);">
			<g style="opacity:0;">
				
					<circle style="fill:none;stroke:#FFFFFF;stroke-width:6;stroke-linecap:round;stroke-miterlimit:10;stroke-dasharray:0,7.9566;" cx="375" cy="250" r="57"/>
			</g>
			<g style="opacity:0.0909;">
				
					<circle style="fill:none;stroke:#FFFFFF;stroke-width:7.2727;stroke-linecap:round;stroke-miterlimit:10;stroke-dasharray:0,13.0739;" cx="375" cy="250" r="93.631"/>
			</g>
			<g style="opacity:0.1818;">
				
					<circle style="fill:none;stroke:#FFFFFF;stroke-width:8.5455;stroke-linecap:round;stroke-miterlimit:10;stroke-dasharray:0,18.1888;" cx="375" cy="250" r="130.263"/>
			</g>
			<g style="opacity:0.2727;">
				
					<circle style="fill:none;stroke:#FFFFFF;stroke-width:9.8182;stroke-linecap:round;stroke-miterlimit:10;stroke-dasharray:0,23.3037;" cx="375" cy="250" r="166.894"/>
			</g>
			<g style="opacity:0.3636;">
				
					<circle style="fill:none;stroke:#FFFFFF;stroke-width:11.0909;stroke-linecap:round;stroke-miterlimit:10;stroke-dasharray:0,28.4186;" cx="375" cy="250" r="203.525"/>
			</g>
			<g style="opacity:0.4545;">
				
					<circle style="fill:none;stroke:#FFFFFF;stroke-width:12.3636;stroke-linecap:round;stroke-miterlimit:10;stroke-dasharray:0,33.5336;" cx="375" cy="250" r="240.157"/>
			</g>
			<g style="opacity:0.5455;">
				
					<circle style="fill:none;stroke:#FFFFFF;stroke-width:13.6364;stroke-linecap:round;stroke-miterlimit:10;stroke-dasharray:0,38.6485;" cx="375" cy="250" r="276.788"/>
			</g>
			<g style="opacity:0.6364;">
				
					<circle style="fill:none;stroke:#FFFFFF;stroke-width:14.9091;stroke-linecap:round;stroke-miterlimit:10;stroke-dasharray:0,43.7634;" cx="375" cy="250" r="313.42"/>
			</g>
			<g style="opacity:0.7273;">
				
					<circle style="fill:none;stroke:#FFFFFF;stroke-width:16.1818;stroke-linecap:round;stroke-miterlimit:10;stroke-dasharray:0,48.8783;" cx="375" cy="250" r="350.051"/>
			</g>
			<g style="opacity:0.8182;">
				
					<circle style="fill:none;stroke:#FFFFFF;stroke-width:17.4545;stroke-linecap:round;stroke-miterlimit:10;stroke-dasharray:0,53.9932;" cx="375" cy="250" r="386.682"/>
			</g>
			<g style="opacity:0.9091;">
				
					<circle style="fill:none;stroke:#FFFFFF;stroke-width:18.7273;stroke-linecap:round;stroke-miterlimit:10;stroke-dasharray:0,59.1081;" cx="375" cy="250" r="423.314"/>
			</g>
			<g>
				
					<circle style="fill:none;stroke:#FFFFFF;stroke-width:20;stroke-linecap:round;stroke-miterlimit:10;stroke-dasharray:0,64.2233;" cx="375" cy="250" r="459.945"/>
			</g>
		</g>
		<g style="clip-path:url(#SVGID_00000092421078398279948360000008269321265420029872_);">
			<polygon style="fill:#F0C419;" points="197.563,291.13 59.687,392.238 91.421,392.238 -76,561.482 -5.238,561.482 
				90.326,451.327 73.548,451.327 147.592,377.283 116.588,377.648 			"/>
			<polygon style="fill:#F0C419;" points="248.36,139.639 127.226,18.978 132.113,50.333 -60.895,-89.028 -49.998,-19.11 
				73.559,58.351 70.975,41.773 155.539,103.532 150.404,72.954 			"/>
			<polygon style="fill:#F0C419;" points="325.089,375.116 239.737,488.918 260.892,488.918 188.396,613.662 225.361,613.662 
				301.229,475.057 279.13,475.057 			"/>
			<polygon style="fill:#F0C419;" points="117.372,296.075 19.921,312.33 30.551,322.474 -65.688,350.391 -47.115,368.116 
				57.464,334.85 46.36,324.254 			"/>
			<polygon style="fill:#F0C419;" points="163.275,232.412 22.525,211.791 32.631,230.377 -111.591,226.276 -93.933,258.751 
				64.077,259.193 53.52,239.778 			"/>
			<polygon style="fill:#F0C419;" points="325.089,121.055 303.115,12.055 288.589,31.055 264.589,-57.945 215.589,-57.945 
				283.589,82.055 294.089,60.055 			"/>
			<polygon style="fill:#F0C419;" points="205.785,400.244 113.303,461.978 136.397,468.197 63.186,524.207 81.8,569.534 
				185.473,453.448 161.134,452.093 			"/>
			<polygon style="fill:#F0C419;" points="116.838,126.793 -28.163,47.793 -28.163,71.793 			"/>
			<polygon style="fill:#F0C419;" points="243.78,76.689 156.991,-63.788 145.097,-42.942 			"/>
			<polygon style="fill:#F0C419;" points="44.338,388.752 -85.76,490.441 -63.735,499.974 			"/>
			<polygon style="fill:#F0C419;" points="247.528,420.807 139.597,545.775 163.052,550.86 			"/>
			<polygon style="fill:#F0C419;" points="548.129,291.13 686.005,392.238 654.271,392.238 821.692,561.482 750.93,561.482 
				655.366,451.327 672.144,451.327 598.1,377.283 629.104,377.648 			"/>
			<polygon style="fill:#F0C419;" points="507.016,139.639 628.15,18.978 623.263,50.333 816.271,-89.028 805.374,-19.11 
				681.817,58.351 684.4,41.773 599.837,103.532 604.972,72.954 			"/>
			<polygon style="fill:#F0C419;" points="518.543,354.208 623.914,449.774 603.142,453.783 697.964,562.529 661.669,569.534 
				560.909,447.818 582.608,443.63 			"/>
			<polygon style="fill:#F0C419;" points="628.319,303.075 725.771,319.33 715.141,329.474 811.38,357.391 792.807,375.116 
				688.228,341.85 699.332,331.254 			"/>
			<polygon style="fill:#F0C419;" points="354.736,70.023 313.951,-19.963 328.296,-16.786 297.871,-112.261 322.937,-106.71 
				353.567,-1.329 338.581,-4.648 			"/>
			<polygon style="fill:#F0C419;" points="124.807,187.452 29.118,162.864 40.582,153.673 -52.895,117.57 -32.864,101.512 
				68.461,143.661 56.486,153.261 			"/>
			<polygon style="fill:#F0C419;" points="651.771,158.822 741.961,118.491 738.712,132.82 834.34,102.877 828.662,127.914 
				723.128,158.012 726.523,143.044 			"/>
			<polygon style="fill:#F0C419;" points="383.576,392.806 411.703,487.515 397.926,482.41 415.04,581.144 390.966,572.225 
				375,463.651 389.392,468.983 			"/>
			<polygon style="fill:#F0C419;" points="577.719,232.412 718.469,211.791 708.363,230.377 852.586,226.276 834.928,258.751 
				676.918,259.193 687.474,239.778 			"/>
			<polygon style="fill:#F0C419;" points="436.809,113.397 479.706,10.812 490.229,32.289 531.196,-50.287 579.247,-40.69 
				485.144,83.28 479.156,59.65 			"/>
			<polygon style="fill:#F0C419;" points="451.766,390.804 509.73,485.693 486.162,481.629 529.047,563.224 493.104,596.528 
				447.831,447.617 470.486,456.618 			"/>
			<polygon style="fill:#F0C419;" points="617.332,133.055 762.332,54.055 762.332,78.055 			"/>
			<polygon style="fill:#F0C419;" points="523.819,67.162 635.724,-54.26 643.44,-31.535 			"/>
			<polygon style="fill:#F0C419;" points="410.979,70.723 455.21,-88.367 472.439,-71.659 			"/>
			<polygon style="fill:#F0C419;" points="701.354,388.752 831.452,490.441 809.427,499.974 			"/>
			<polygon style="fill:#F0C419;" points="685.024,284.38 847.782,312.237 832.909,331.072 			"/>
			<polygon style="fill:#F0C419;" points="668.754,186.766 831.246,157.405 823.694,180.186 			"/>
			<polygon style="fill:#F0C419;" points="501.102,420.03 594.475,556.219 570.6,558.666 			"/>
			<polygon style="fill:#F0C419;" points="353.648,427.884 350.36,543.388 332.027,541.722 			"/>
		</g>
		<g style="clip-path:url(#SVGID_00000092421078398279948360000008269321265420029872_);">
			<polygon style="fill:#FFFFFF;" points="195.985,148.533 -6.307,32.388 -12.973,44.388 			"/>
			<polygon style="fill:#FFFFFF;" points="312.737,148.533 211.597,-26.945 200.136,-19.389 			"/>
			<polygon style="fill:#FFFFFF;" points="211.597,221.555 -6.608,179.433 -8.307,193.055 			"/>
			<polygon style="fill:#FFFFFF;" points="160.494,404.806 39.104,514.903 49.027,524.388 			"/>
			<polygon style="fill:#FFFFFF;" points="329.622,445.367 295.55,543.249 308.88,546.53 			"/>
			<polygon style="fill:#FFFFFF;" points="430.541,448.8 446.543,551.2 459.849,547.822 			"/>
			<polygon style="fill:#FFFFFF;" points="537.061,438.061 594.413,524.388 605.087,515.756 			"/>
			<polygon style="fill:#FFFFFF;" points="385.737,51.699 378.617,-51.699 365.07,-49.48 			"/>
			<polygon style="fill:#FFFFFF;" points="178.528,37.152 110.149,-40.733 100.725,-30.752 			"/>
			<polygon style="fill:#FFFFFF;" points="582.01,42.81 661.718,-23.435 651.996,-33.126 			"/>
			<polygon style="fill:#FFFFFF;" points="250.084,444.776 186.36,537.888 198.36,544.555 			"/>
			<polygon style="fill:#FFFFFF;" points="167.964,301.627 -22.336,376.379 -17.376,389.18 			"/>
			<polygon style="fill:#FFFFFF;" points="562.813,142.533 765.105,26.388 771.771,38.388 			"/>
			<polygon style="fill:#FFFFFF;" points="422.608,110.186 479.539,-84.186 492.458,-79.544 			"/>
			<polygon style="fill:#FFFFFF;" points="562.813,207.894 784.078,187.172 784.446,200.894 			"/>
			<polygon style="fill:#FFFFFF;" points="588.367,404.806 709.758,514.903 699.835,524.388 			"/>
			<polygon style="fill:#FFFFFF;" points="605.087,306.349 784.446,404.494 777.911,416.567 			"/>
		</g>
	</g>
</g>
</svg>
